<svg width="21" height="30" viewBox="0 0 21 30" xmlns="http://www.w3.org/2000/svg" xmlns:xlink="http://www.w3.org/1999/xlink"><title>Garbage</title><defs><rect id="a" y="8.179" width="21" height="21.032" rx="4"/><mask id="c" x="0" y="0" width="21" height="21.032" fill="#fff"><use xlink:href="#a"/></mask><path d="M7.8 2.495c0-.942 1.209-1.706 2.7-1.706s2.7.764 2.7 1.706h5.246A2.55 2.55 0 0 1 21 5.053a2.556 2.556 0 0 1-2.554 2.558H2.554A2.55 2.55 0 0 1 0 5.053a2.556 2.556 0 0 1 2.554-2.558H7.8z" id="b"/><mask id="d" x="0" y="0" width="21" height="6.821" fill="#fff"><use xlink:href="#b"/></mask></defs><g stroke="#000" fill="none" fill-rule="evenodd"><use mask="url(#c)" stroke-width="2" opacity=".4" xlink:href="#a"/><use mask="url(#d)" stroke-width="2" opacity=".402" xlink:href="#b"/><path d="M10.5 11.874v13.642M5.1 11.874v13.642M15.9 11.874v13.642" stroke-linecap="square" opacity=".393"/></g></svg>