<svg width="243" height="91" viewBox="0 0 243 91" xmlns="http://www.w3.org/2000/svg"><title>Group 14</title><g fill="none" fill-rule="evenodd"><circle fill="#FD8CDB" cx="104" cy="68" r="7"/><circle fill="#FD8CDB" cx="111.5" cy="50.5" r="4.5"/><circle fill="#FD8CDB" cx="128" cy="55" r="7"/><circle fill="#FD8CDB" cx="100" cy="33" r="8"/><path d="M153.74 35.041c-3.202-9.582-9.299-16.805-18.525-21.185-6.17-2.932-12.767-3.951-19.705-4.005-3.38.036-6.92.304-10.389 1.055-12.749 2.77-22.011 9.958-26.928 22.115-4.757 11.782-4.631 23.76.143 35.542 4.291 10.584 12.105 17.485 23.102 20.56 8.44 2.36 17.022 2.467 25.551.465 11.426-2.682 19.884-9.297 24.855-19.97 5.22-11.228 5.811-22.849 1.895-34.577zM130.511 60.09c-1.395 4.29-3.773 7.83-7.903 9.94-9.263 4.755-19.937-.179-22.655-10.441-.787-2.95-1.037-5.971-1.091-9.028.054-4.255.59-8.421 2.36-12.372 5.329-11.89 21.082-11.639 27.054-2.968a19.987 19.987 0 0 1 3.38 9.118c.643 5.328.518 10.62-1.145 15.75zM71.148 35.417c-3.433-10.942-10.39-18.29-21.761-21.025-5.812-1.395-11.748-1.591-17.666-1.645-10.032-.107-20.08-.053-30.112-.071-1.537 0-1.537 0-1.537 1.52v72.638c0 1.592 0 1.592 1.573 1.592 11.247 0 22.512.053 33.777-.036 3.487 0 6.955-.215 10.424-.644 11.301-1.52 19.222-7.616 23.746-18.075 2.056-4.773 3.076-9.815 3.433-14.982.43-6.525.09-12.997-1.877-19.272zm-24.39 26.889c-2.306 5.703-6.633 8.617-12.82 8.67-2.915.036-5.847 0-8.762.054-.858.018-1.037-.34-1.037-1.108.018-6.4 0-12.801 0-19.22 0-6.382.018-12.747-.018-19.13 0-.875.215-1.215 1.145-1.18 3.361.09 6.74.055 10.102.18 5.758.214 9.602 3.182 11.57 8.545 2.842 7.724 2.914 15.5-.18 23.189zM242.5 7.223c-1.324-2.02-3.344-3.701-3.362-6.418 0-.751-.519-.93-1.198-.68-.948.34-1.914.697-2.861 1.02-.161.035-.34.053-.519.053-.304.053-.643.053-.876.214-8.314 5.9-16.611 11.8-24.89 17.718a2.868 2.868 0 0 0-.554.661c-.215.322-.358.733-.644.948-1.09.858-2.217 1.644-3.38 2.485l-.625-.787c-.948.68-1.02 1.68-1.27 2.61-.304 1.109-.518 2.396-1.216 3.218-2.771 3.29-5.257 6.866-8.618 9.637-.394.322-.698.429-1.198.25a44.565 44.565 0 0 0-3.272-1.162c-2.164-.68-2.164-.662-3.63 1.037-.59.68-1.198 1.34-1.806 2.002l-.215-.125V13.82c0-1.305 0-1.305-1.34-1.305h-21.35c-1.27 0-1.27 0-1.27 1.198v73.372c0 1.215 0 1.215 1.234 1.215h21.635c1.234 0 1.234-.017 1.234-1.251 0-5.185.018-10.37-.018-15.554-.035-.769.25-1.52.805-2.074 2.414-2.61 4.774-5.256 7.152-7.884 1.02-1.109 2.039-2.235 3.13-3.415.214.322.375.536.5.75 5.275 9.512 10.532 19.023 15.771 28.534.34.626.733.877 1.448.877 8.28-.018 16.576-.018 24.855-.018.304 0 .608-.036 1.144-.072l-28.341-47.198c.715-.733 1.502-1.502 2.217-2.324a289.474 289.474 0 0 0 4.238-5.078c.393-.5.787-.894 1.502-.59.214.054.465 0 .626-.143a43.028 43.028 0 0 0 2.002-2.396c.143-.178.25-.607.143-.697-.697-.643-.196-1.09.197-1.573a7096.091 7096.091 0 0 1 14.877-17.843c.197-.232.536-.34.822-.518.108.322.322.644.304.948a127.105 127.105 0 0 1-.25 4.47c-.268 4.343-.536 8.67-.822 13.014-.018.322-.036.787-.233.912-1.34.858-.965 1.967-.536 3.093.304.805.983.966 2.128.572.965-.34 1.287-.912 1.09-1.734a10.196 10.196 0 0 1-.322-2.092c-.107-2.11.537-4.094 1.216-6.078 1.592-4.613 3.13-9.243 4.703-13.874.25-.68.054-1.198-.358-1.841zm-13 6.293c-3.683 4.005-7.385 7.991-11.068 12.014-.537.59-1.002.822-1.735.358-.59-.376-1.216-.286-1.663.321-.661.894-1.251 1.824-1.93 2.7-.233.304-.662.465-.948.75-1.073 1.127-2.092 2.271-3.165 3.398-.537.554-.876 1.126-.376 1.86-.876.75-1.251.59-1.77-.287-.787-1.305.125-2.253.465-3.325.107-.322.25-.644.411-1.02.125-.017.25-.017.376-.017.554.071 1.073.268 1.216-.644.107-.715.5-1.394.822-2.056.107-.25.34-.447.572-.75-.286-.501-.554-1.056-.912-1.574-.465-.661-.143-.965.43-1.305a3227.199 3227.199 0 0 0 16.754-10.244l4.63-2.843.162.179c-.751.84-1.502 1.663-2.271 2.485zm9.674-9.994l.286-.09 3.165 4.524c-1.36.071-2.468.143-3.559.16-.107 0-.322-.303-.304-.446.108-1.395.268-2.771.412-4.148zm-1.663 20.614l-.215-.054c0-.393-.036-.805 0-1.198.358-3.969.715-7.938 1.09-11.907.037-.304.233-.59.323-.894.071-.196.214-.482.143-.625-.537-.876.071-.876.661-.912.984-.036 1.985-.09 3.2-.143l-5.202 15.733z" fill="#7FD5CA"/></g></svg>