<svg width="41" height="40" viewBox="0 0 41 40" xmlns="http://www.w3.org/2000/svg"><title>phone symbol 1</title><g fill="#6D9DE8" fill-rule="evenodd"><path d="M5.481 9.934l-.497.175c-2.501.888-3.158-2.29-3.158-3.638C1.826 2.897 10 0 20.086 0 30.168 0 38.58 2.897 38.58 6.47c0 1.23-.441 4.42-2.813 3.64l-.468-.154c-.098-2.235-6.911-2.897-15.29-2.897-8.326 0-14.369.673-14.529 2.875zM3.678 18.497c.774-3.393 3.214-6.144 5.456-6.144h21.79c2.24 0 4.675 2.752 5.44 6.144l3.474 15.359C40.6 37.249 38.64 40 35.458 40H4.535c-3.18 0-5.137-2.752-4.368-6.144l3.51-15.359zm16.407 16.209c5.042 0 9.13-3.95 9.13-8.824 0-4.873-4.088-8.823-9.13-8.823-5.042 0-9.13 3.95-9.13 8.823s4.088 8.824 9.13 8.824z"/><ellipse cx="20.085" cy="25.882" rx="6.695" ry="6.471"/><path d="M10.347 8.235h4.869v7.059h-4.869zM24.954 8.235h4.869v7.059h-4.869zM0 35.294h40.17V40H0z"/></g></svg>