<?xml version="1.0" encoding="UTF-8"?>
<svg width="41px" height="40px" viewBox="0 0 41 40" version="1.1" xmlns="http://www.w3.org/2000/svg" xmlns:xlink="http://www.w3.org/1999/xlink">
    <!-- Generator: Sketch 42 (36781) - http://www.bohemiancoding.com/sketch -->
    <title>phone symbol 1</title>
    <desc>Created with Sketch.</desc>
    <defs></defs>
    <g id="Home" stroke="none" stroke-width="1" fill="none" fill-rule="evenodd">
        <g id="Home-1280" transform="translate(-910.000000, -2652.000000)" fill="#6D9DE8">
            <g id="Group-13" transform="translate(0.000000, 2602.000000)">
                <g id="Group-11" transform="translate(330.000000, 50.000000)">
                    <g id="phone-symbol-1" transform="translate(580.000000, 0.000000)">
                        <g id="Group-2">
                            <path d="M5.48102163,9.93430677 C5.31767111,9.99147479 5.15214331,10.0498034 4.9844091,10.1093082 C2.48252344,10.996869 1.82591695,7.81976665 1.82591695,6.47058824 C1.82591695,2.89698103 10.0008256,0 20.0850864,0 C30.1693473,0 38.5809654,2.89698103 38.5809654,6.47058824 C38.5809654,7.70003589 38.1395268,10.8895804 35.7680904,10.1093082 C35.6102419,10.0573715 35.4542178,10.0063214 35.2999971,9.95614801 C35.2023039,7.72126825 28.3887717,7.05882353 20.0100419,7.05882353 C11.6835898,7.05882353 5.64140211,7.73231867 5.48102163,9.93430677 Z" id="Combined-Shape"></path>
                            <path d="M3.67776313,18.4973013 C4.45232179,15.1038649 6.89220061,12.3529412 9.13396535,12.3529412 L30.9241629,12.3529412 C33.1642864,12.3529412 35.5986189,15.1049227 36.3640591,18.4973013 L39.8384787,33.8556399 C40.6001682,37.2490763 38.6392188,40 35.4578747,40 L4.53486345,40 C1.35584852,40 -0.601604088,37.2480185 0.167018399,33.8556399 L3.67776313,18.4973013 Z M20.0850864,34.7058824 C25.1272169,34.7058824 29.2146712,30.7554537 29.2146712,25.8823529 C29.2146712,21.0092522 25.1272169,17.0588235 20.0850864,17.0588235 C15.042956,17.0588235 10.9555017,21.0092522 10.9555017,25.8823529 C10.9555017,30.7554537 15.042956,34.7058824 20.0850864,34.7058824 Z" id="Combined-Shape"></path>
                            <ellipse id="Oval-4" cx="20.0850864" cy="25.8823529" rx="6.69502881" ry="6.47058824"></ellipse>
                            <rect id="Rectangle-3" x="10.3468627" y="8.23529412" width="4.86911186" height="7.05882353"></rect>
                            <rect id="Rectangle-3-Copy" x="24.9541983" y="8.23529412" width="4.86911186" height="7.05882353"></rect>
                            <rect id="Rectangle-4" x="0" y="35.2941176" width="40.1701729" height="4.70588235"></rect>
                        </g>
                    </g>
                </g>
            </g>
        </g>
    </g>
</svg>