<?xml version="1.0" encoding="UTF-8"?>
<svg width="243px" height="383px" viewBox="0 0 243 383" version="1.1" xmlns="http://www.w3.org/2000/svg" xmlns:xlink="http://www.w3.org/1999/xlink">
    <!-- Generator: Sketch 42 (36781) - http://www.bohemiancoding.com/sketch -->
    <title>Group</title>
    <desc>Created with Sketch.</desc>
    <defs>
        <linearGradient x1="50%" y1="3.66509885%" x2="50%" y2="100%" id="linearGradient-1">
            <stop stop-color="#7BFF5B" offset="0%"></stop>
            <stop stop-color="#FFF461" offset="100%"></stop>
        </linearGradient>
    </defs>
    <g id="Home" stroke="none" stroke-width="1" fill="none" fill-rule="evenodd">
        <g id="Home-1280" transform="translate(-83.000000, 0.000000)">
            <g id="header">
                <g id="Group" transform="translate(59.000000, -37.000000)">
                    <path d="M52.9768166,86.8959949 C52.9768166,86.8959949 99.8696206,-29.2572597 199.820015,44.3388259 C299.77041,117.934912 150.609495,107.287204 199.820015,155.553106 C222.390546,177.690384 295.006657,182.232975 251.429465,221.640342 C224.03491,246.413559 195.01325,226.995095 183.214253,273.267902 C171.415255,319.540708 209.340905,327.464638 194.590053,354.555403 C179.8392,381.646167 131.248077,418.328531 87.8840237,411.537248 C44.5199706,404.745966 52.9768166,86.8959949 52.9768166,86.8959949 Z" id="Path-3" fill="url(#linearGradient-1)" transform="translate(158.701286, 216.134816) scale(1, -1) rotate(14.000000) translate(-158.701286, -216.134816) "></path>
                    <path d="M42.9768166,91.8959949 C42.9768166,91.8959949 89.8696206,-24.2572597 189.820015,49.3388259 C289.77041,122.934912 140.609495,112.287204 189.820015,160.553106 C212.390546,182.690384 285.006657,187.232975 241.429465,226.640342 C214.03491,251.413559 185.01325,231.995095 173.214253,278.267902 C161.415255,324.540708 199.340905,332.464638 184.590053,359.555403 C169.8392,386.646167 121.248077,423.328531 77.8840237,416.537248 C34.5199706,409.745966 42.9768166,91.8959949 42.9768166,91.8959949 Z" id="Path-3-Copy" fill="#7FD5CA" transform="translate(148.701286, 221.134816) scale(1, -1) rotate(13.000000) translate(-148.701286, -221.134816) "></path>
                </g>
            </g>
        </g>
    </g>
</svg>