<svg width="243" height="383" viewBox="0 0 243 383" xmlns="http://www.w3.org/2000/svg"><title>Group</title><defs><linearGradient x1="50%" y1="3.665%" x2="50%" y2="100%" id="a"><stop stop-color="#7BFF5B" offset="0%"/><stop stop-color="#FFF461" offset="100%"/></linearGradient></defs><g fill="none" fill-rule="evenodd"><path d="M52.977 86.896S99.87-29.257 199.82 44.339c99.95 73.596-49.21 62.948 0 111.214 22.57 22.137 95.187 26.68 51.61 66.087-27.395 24.774-56.417 5.355-68.216 51.628-11.799 46.273 26.127 54.197 11.376 81.287-14.75 27.091-63.342 63.774-106.706 56.982C44.52 404.746 52.977 86.896 52.977 86.896z" fill="url(#a)" transform="scale(1 -1) rotate(14 1756.308 -79.232)"/><path d="M50.759 333.844s71.82 102.628 152.653 8.434-62.11-50.265-25.018-108.364c17.012-26.647 86.745-47.408 35.42-76.003-32.265-17.976-56.174 7.473-78.08-34.96-21.906-42.432 13.265-58.684-7.202-81.762C108.065 18.11 52.468-6.701 11.743 9.67-28.982 26.043 50.76 333.844 50.76 333.844z" fill="#7FD5CA"/></g></svg>